{
	"patcher" : 	{
		"fileversion" : 1,
		"appversion" : 		{
			"major" : 8,
			"minor" : 5,
			"revision" : 4,
			"architecture" : "x64",
			"modernui" : 1
		}
,
		"classnamespace" : "box",
		"rect" : [ 130.0, 379.0, 1061.0, 474.0 ],
		"bglocked" : 0,
		"openinpresentation" : 0,
		"default_fontsize" : 12.0,
		"default_fontface" : 0,
		"default_fontname" : "Arial",
		"gridonopen" : 1,
		"gridsize" : [ 15.0, 15.0 ],
		"gridsnaponopen" : 1,
		"objectsnaponopen" : 1,
		"statusbarvisible" : 2,
		"toolbarvisible" : 1,
		"lefttoolbarpinned" : 0,
		"toptoolbarpinned" : 0,
		"righttoolbarpinned" : 0,
		"bottomtoolbarpinned" : 0,
		"toolbars_unpinned_last_save" : 0,
		"tallnewobj" : 0,
		"boxanimatetime" : 200,
		"enablehscroll" : 1,
		"enablevscroll" : 1,
		"devicewidth" : 0.0,
		"description" : "",
		"digest" : "",
		"tags" : "",
		"style" : "",
		"subpatcher_template" : "",
		"assistshowspatchername" : 0,
		"boxes" : [ 			{
				"box" : 				{
					"id" : "obj-5",
					"maxclass" : "newobj",
					"numinlets" : 1,
					"numoutlets" : 1,
					"outlettype" : [ "" ],
					"patching_rect" : [ 876.0, 152.0, 81.0, 22.0 ],
					"text" : "loadmess -24"
				}

			}
, 			{
				"box" : 				{
					"id" : "obj-4",
					"maxclass" : "newobj",
					"numinlets" : 1,
					"numoutlets" : 1,
					"outlettype" : [ "" ],
					"patching_rect" : [ 667.0, 152.0, 81.0, 22.0 ],
					"text" : "loadmess -24"
				}

			}
, 			{
				"box" : 				{
					"id" : "obj-3",
					"maxclass" : "newobj",
					"numinlets" : 1,
					"numoutlets" : 1,
					"outlettype" : [ "" ],
					"patching_rect" : [ 489.0, 152.0, 81.0, 22.0 ],
					"text" : "loadmess -24"
				}

			}
, 			{
				"box" : 				{
					"id" : "obj-2",
					"maxclass" : "newobj",
					"numinlets" : 1,
					"numoutlets" : 1,
					"outlettype" : [ "" ],
					"patching_rect" : [ 298.0, 148.0, 81.0, 22.0 ],
					"text" : "loadmess -24"
				}

			}
, 			{
				"box" : 				{
					"id" : "obj-1",
					"maxclass" : "newobj",
					"numinlets" : 1,
					"numoutlets" : 1,
					"outlettype" : [ "" ],
					"patching_rect" : [ 101.0, 148.0, 81.0, 22.0 ],
					"text" : "loadmess -24"
				}

			}
, 			{
				"box" : 				{
					"fontface" : 1,
					"fontsize" : 14.0,
					"id" : "obj-42",
					"maxclass" : "comment",
					"numinlets" : 1,
					"numoutlets" : 0,
					"patching_rect" : [ 44.0, 64.0, 318.0, 22.0 ],
					"text" : "How interesting can youmake a single button?"
				}

			}
, 			{
				"box" : 				{
					"id" : "obj-40",
					"lastchannelcount" : 0,
					"maxclass" : "live.gain~",
					"numinlets" : 2,
					"numoutlets" : 5,
					"outlettype" : [ "signal", "signal", "", "float", "list" ],
					"parameter_enable" : 1,
					"patching_rect" : [ 817.0, 152.0, 48.0, 136.0 ],
					"saved_attribute_attributes" : 					{
						"valueof" : 						{
							"parameter_longname" : "live.gain~[4]",
							"parameter_mmax" : 6.0,
							"parameter_mmin" : -70.0,
							"parameter_shortname" : "live.gain~",
							"parameter_type" : 0,
							"parameter_unitstyle" : 4
						}

					}
,
					"varname" : "live.gain~[4]"
				}

			}
, 			{
				"box" : 				{
					"id" : "obj-41",
					"maxclass" : "newobj",
					"numinlets" : 0,
					"numoutlets" : 1,
					"outlettype" : [ "signal" ],
					"patcher" : 					{
						"fileversion" : 1,
						"appversion" : 						{
							"major" : 8,
							"minor" : 5,
							"revision" : 4,
							"architecture" : "x64",
							"modernui" : 1
						}
,
						"classnamespace" : "box",
						"rect" : [ 215.0, 259.0, 604.0, 541.0 ],
						"bglocked" : 0,
						"openinpresentation" : 0,
						"default_fontsize" : 12.0,
						"default_fontface" : 0,
						"default_fontname" : "Arial",
						"gridonopen" : 1,
						"gridsize" : [ 15.0, 15.0 ],
						"gridsnaponopen" : 1,
						"objectsnaponopen" : 1,
						"statusbarvisible" : 2,
						"toolbarvisible" : 1,
						"lefttoolbarpinned" : 0,
						"toptoolbarpinned" : 0,
						"righttoolbarpinned" : 0,
						"bottomtoolbarpinned" : 0,
						"toolbars_unpinned_last_save" : 0,
						"tallnewobj" : 0,
						"boxanimatetime" : 200,
						"enablehscroll" : 1,
						"enablevscroll" : 1,
						"devicewidth" : 0.0,
						"description" : "",
						"digest" : "",
						"tags" : "",
						"style" : "",
						"subpatcher_template" : "",
						"assistshowspatchername" : 0,
						"boxes" : [ 							{
								"box" : 								{
									"id" : "obj-34",
									"maxclass" : "newobj",
									"numinlets" : 1,
									"numoutlets" : 1,
									"outlettype" : [ "signal" ],
									"patching_rect" : [ 142.0, 351.0, 31.0, 22.0 ],
									"text" : "sig~"
								}

							}
, 							{
								"box" : 								{
									"format" : 6,
									"id" : "obj-33",
									"maxclass" : "flonum",
									"numinlets" : 1,
									"numoutlets" : 2,
									"outlettype" : [ "", "bang" ],
									"parameter_enable" : 0,
									"patching_rect" : [ 247.0, 303.0, 50.0, 22.0 ]
								}

							}
, 							{
								"box" : 								{
									"id" : "obj-22",
									"maxclass" : "message",
									"numinlets" : 2,
									"numoutlets" : 1,
									"outlettype" : [ "" ],
									"patching_rect" : [ 31.0, 351.0, 29.5, 22.0 ],
									"text" : "0"
								}

							}
, 							{
								"box" : 								{
									"id" : "obj-13",
									"maxclass" : "newobj",
									"numinlets" : 6,
									"numoutlets" : 1,
									"outlettype" : [ "" ],
									"patching_rect" : [ 142.0, 303.0, 90.0, 22.0 ],
									"text" : "scale 0 15 1. 4."
								}

							}
, 							{
								"box" : 								{
									"id" : "obj-9",
									"maxclass" : "newobj",
									"numinlets" : 3,
									"numoutlets" : 1,
									"outlettype" : [ "" ],
									"patching_rect" : [ 142.0, 264.333333333333314, 53.0, 22.0 ],
									"text" : "clip 0 15"
								}

							}
, 							{
								"box" : 								{
									"id" : "obj-28",
									"maxclass" : "message",
									"numinlets" : 2,
									"numoutlets" : 1,
									"outlettype" : [ "" ],
									"patching_rect" : [ 64.0, 252.0, 35.0, 22.0 ],
									"text" : "set 0"
								}

							}
, 							{
								"box" : 								{
									"id" : "obj-26",
									"maxclass" : "newobj",
									"numinlets" : 2,
									"numoutlets" : 2,
									"outlettype" : [ "bang", "" ],
									"patching_rect" : [ 64.0, 222.0, 34.0, 22.0 ],
									"text" : "sel 1"
								}

							}
, 							{
								"box" : 								{
									"id" : "obj-25",
									"maxclass" : "newobj",
									"numinlets" : 2,
									"numoutlets" : 1,
									"outlettype" : [ "int" ],
									"patching_rect" : [ 64.0, 191.0, 29.5, 22.0 ],
									"text" : "< 0"
								}

							}
, 							{
								"box" : 								{
									"format" : 6,
									"id" : "obj-23",
									"maxclass" : "flonum",
									"numinlets" : 1,
									"numoutlets" : 2,
									"outlettype" : [ "", "bang" ],
									"parameter_enable" : 0,
									"patching_rect" : [ 142.0, 227.666666666666629, 50.0, 22.0 ]
								}

							}
, 							{
								"box" : 								{
									"id" : "obj-21",
									"maxclass" : "newobj",
									"numinlets" : 2,
									"numoutlets" : 1,
									"outlettype" : [ "float" ],
									"patching_rect" : [ 274.0, 151.0, 29.5, 22.0 ],
									"text" : "f -1."
								}

							}
, 							{
								"box" : 								{
									"id" : "obj-20",
									"maxclass" : "newobj",
									"numinlets" : 2,
									"numoutlets" : 1,
									"outlettype" : [ "float" ],
									"patching_rect" : [ 208.0, 151.0, 29.5, 22.0 ],
									"text" : "f 1."
								}

							}
, 							{
								"box" : 								{
									"id" : "obj-18",
									"maxclass" : "newobj",
									"numinlets" : 3,
									"numoutlets" : 1,
									"outlettype" : [ "float" ],
									"patching_rect" : [ 142.0, 191.0, 151.0, 22.0 ],
									"text" : "accum 0."
								}

							}
, 							{
								"box" : 								{
									"id" : "obj-10",
									"maxclass" : "button",
									"numinlets" : 1,
									"numoutlets" : 1,
									"outlettype" : [ "bang" ],
									"parameter_enable" : 0,
									"patching_rect" : [ 142.0, 22.0, 60.0, 60.0 ]
								}

							}
, 							{
								"box" : 								{
									"id" : "obj-11",
									"maxclass" : "newobj",
									"numinlets" : 1,
									"numoutlets" : 1,
									"outlettype" : [ "" ],
									"patching_rect" : [ 274.0, 22.0, 70.0, 22.0 ],
									"text" : "loadmess 1"
								}

							}
, 							{
								"box" : 								{
									"id" : "obj-12",
									"maxclass" : "newobj",
									"numinlets" : 2,
									"numoutlets" : 1,
									"outlettype" : [ "bang" ],
									"patching_rect" : [ 274.0, 58.0, 63.0, 22.0 ],
									"text" : "metro 250"
								}

							}
, 							{
								"box" : 								{
									"comment" : "",
									"id" : "obj-17",
									"index" : 1,
									"maxclass" : "outlet",
									"numinlets" : 1,
									"numoutlets" : 0,
									"patching_rect" : [ 142.0, 460.0, 30.0, 30.0 ]
								}

							}
, 							{
								"box" : 								{
									"id" : "obj-5",
									"maxclass" : "newobj",
									"numinlets" : 3,
									"numoutlets" : 2,
									"outlettype" : [ "signal", "signal" ],
									"patching_rect" : [ 142.0, 418.0, 72.0, 22.0 ],
									"text" : "groove~ cat"
								}

							}
, 							{
								"box" : 								{
									"id" : "obj-4",
									"maxclass" : "newobj",
									"numinlets" : 1,
									"numoutlets" : 1,
									"outlettype" : [ "" ],
									"patching_rect" : [ 426.0, 94.666666666666671, 80.0, 22.0 ],
									"text" : "prepend read"
								}

							}
, 							{
								"box" : 								{
									"id" : "obj-3",
									"maxclass" : "newobj",
									"numinlets" : 1,
									"numoutlets" : 1,
									"outlettype" : [ "" ],
									"patching_rect" : [ 426.0, 58.333333333333336, 119.0, 22.0 ],
									"text" : "mt.relativetoabsolute"
								}

							}
, 							{
								"box" : 								{
									"id" : "obj-2",
									"maxclass" : "newobj",
									"numinlets" : 1,
									"numoutlets" : 1,
									"outlettype" : [ "" ],
									"patching_rect" : [ 426.0, 22.0, 147.0, 22.0 ],
									"text" : "loadmess ../audio/cat.wav"
								}

							}
, 							{
								"box" : 								{
									"id" : "obj-1",
									"maxclass" : "newobj",
									"numinlets" : 1,
									"numoutlets" : 2,
									"outlettype" : [ "float", "bang" ],
									"patching_rect" : [ 426.0, 131.0, 65.0, 22.0 ],
									"text" : "buffer~ cat"
								}

							}
 ],
						"lines" : [ 							{
								"patchline" : 								{
									"destination" : [ "obj-18", 0 ],
									"order" : 1,
									"source" : [ "obj-10", 0 ]
								}

							}
, 							{
								"patchline" : 								{
									"destination" : [ "obj-20", 0 ],
									"order" : 0,
									"source" : [ "obj-10", 0 ]
								}

							}
, 							{
								"patchline" : 								{
									"destination" : [ "obj-22", 0 ],
									"midpoints" : [ 151.5, 112.0, 40.5, 112.0 ],
									"order" : 2,
									"source" : [ "obj-10", 0 ]
								}

							}
, 							{
								"patchline" : 								{
									"destination" : [ "obj-12", 0 ],
									"source" : [ "obj-11", 0 ]
								}

							}
, 							{
								"patchline" : 								{
									"destination" : [ "obj-18", 0 ],
									"order" : 1,
									"source" : [ "obj-12", 0 ]
								}

							}
, 							{
								"patchline" : 								{
									"destination" : [ "obj-21", 0 ],
									"order" : 0,
									"source" : [ "obj-12", 0 ]
								}

							}
, 							{
								"patchline" : 								{
									"destination" : [ "obj-33", 0 ],
									"order" : 0,
									"source" : [ "obj-13", 0 ]
								}

							}
, 							{
								"patchline" : 								{
									"destination" : [ "obj-34", 0 ],
									"order" : 1,
									"source" : [ "obj-13", 0 ]
								}

							}
, 							{
								"patchline" : 								{
									"destination" : [ "obj-23", 0 ],
									"order" : 0,
									"source" : [ "obj-18", 0 ]
								}

							}
, 							{
								"patchline" : 								{
									"destination" : [ "obj-25", 0 ],
									"order" : 1,
									"source" : [ "obj-18", 0 ]
								}

							}
, 							{
								"patchline" : 								{
									"destination" : [ "obj-3", 0 ],
									"source" : [ "obj-2", 0 ]
								}

							}
, 							{
								"patchline" : 								{
									"destination" : [ "obj-18", 1 ],
									"source" : [ "obj-20", 0 ]
								}

							}
, 							{
								"patchline" : 								{
									"destination" : [ "obj-18", 1 ],
									"source" : [ "obj-21", 0 ]
								}

							}
, 							{
								"patchline" : 								{
									"destination" : [ "obj-5", 0 ],
									"midpoints" : [ 40.5, 406.0, 151.5, 406.0 ],
									"source" : [ "obj-22", 0 ]
								}

							}
, 							{
								"patchline" : 								{
									"destination" : [ "obj-9", 0 ],
									"source" : [ "obj-23", 0 ]
								}

							}
, 							{
								"patchline" : 								{
									"destination" : [ "obj-26", 0 ],
									"source" : [ "obj-25", 0 ]
								}

							}
, 							{
								"patchline" : 								{
									"destination" : [ "obj-28", 0 ],
									"source" : [ "obj-26", 0 ]
								}

							}
, 							{
								"patchline" : 								{
									"destination" : [ "obj-18", 0 ],
									"source" : [ "obj-28", 0 ]
								}

							}
, 							{
								"patchline" : 								{
									"destination" : [ "obj-4", 0 ],
									"source" : [ "obj-3", 0 ]
								}

							}
, 							{
								"patchline" : 								{
									"destination" : [ "obj-5", 0 ],
									"source" : [ "obj-34", 0 ]
								}

							}
, 							{
								"patchline" : 								{
									"destination" : [ "obj-1", 0 ],
									"source" : [ "obj-4", 0 ]
								}

							}
, 							{
								"patchline" : 								{
									"destination" : [ "obj-17", 0 ],
									"source" : [ "obj-5", 0 ]
								}

							}
, 							{
								"patchline" : 								{
									"destination" : [ "obj-13", 0 ],
									"source" : [ "obj-9", 0 ]
								}

							}
 ]
					}
,
					"patching_rect" : [ 817.0, 116.0, 91.0, 22.0 ],
					"saved_object_attributes" : 					{
						"description" : "",
						"digest" : "",
						"globalpatchername" : "",
						"tags" : ""
					}
,
					"text" : "p mashingGliss"
				}

			}
, 			{
				"box" : 				{
					"id" : "obj-39",
					"lastchannelcount" : 0,
					"maxclass" : "live.gain~",
					"numinlets" : 2,
					"numoutlets" : 5,
					"outlettype" : [ "signal", "signal", "", "float", "list" ],
					"parameter_enable" : 1,
					"patching_rect" : [ 609.0, 152.0, 48.0, 136.0 ],
					"saved_attribute_attributes" : 					{
						"valueof" : 						{
							"parameter_longname" : "live.gain~[3]",
							"parameter_mmax" : 6.0,
							"parameter_mmin" : -70.0,
							"parameter_shortname" : "live.gain~",
							"parameter_type" : 0,
							"parameter_unitstyle" : 4
						}

					}
,
					"varname" : "live.gain~[3]"
				}

			}
, 			{
				"box" : 				{
					"id" : "obj-38",
					"maxclass" : "newobj",
					"numinlets" : 0,
					"numoutlets" : 1,
					"outlettype" : [ "signal" ],
					"patcher" : 					{
						"fileversion" : 1,
						"appversion" : 						{
							"major" : 8,
							"minor" : 5,
							"revision" : 4,
							"architecture" : "x64",
							"modernui" : 1
						}
,
						"classnamespace" : "box",
						"rect" : [ 241.0, 277.0, 490.0, 429.0 ],
						"bglocked" : 0,
						"openinpresentation" : 0,
						"default_fontsize" : 12.0,
						"default_fontface" : 0,
						"default_fontname" : "Arial",
						"gridonopen" : 1,
						"gridsize" : [ 15.0, 15.0 ],
						"gridsnaponopen" : 1,
						"objectsnaponopen" : 1,
						"statusbarvisible" : 2,
						"toolbarvisible" : 1,
						"lefttoolbarpinned" : 0,
						"toptoolbarpinned" : 0,
						"righttoolbarpinned" : 0,
						"bottomtoolbarpinned" : 0,
						"toolbars_unpinned_last_save" : 0,
						"tallnewobj" : 0,
						"boxanimatetime" : 200,
						"enablehscroll" : 1,
						"enablevscroll" : 1,
						"devicewidth" : 0.0,
						"description" : "",
						"digest" : "",
						"tags" : "",
						"style" : "",
						"subpatcher_template" : "",
						"assistshowspatchername" : 0,
						"boxes" : [ 							{
								"box" : 								{
									"id" : "obj-18",
									"maxclass" : "newobj",
									"numinlets" : 2,
									"numoutlets" : 1,
									"outlettype" : [ "int" ],
									"patching_rect" : [ 36.0, 161.75, 29.5, 22.0 ],
									"text" : "+ 1"
								}

							}
, 							{
								"box" : 								{
									"comment" : "",
									"id" : "obj-17",
									"index" : 1,
									"maxclass" : "outlet",
									"numinlets" : 1,
									"numoutlets" : 0,
									"patching_rect" : [ 36.0, 389.0, 30.0, 30.0 ]
								}

							}
, 							{
								"box" : 								{
									"id" : "obj-16",
									"maxclass" : "message",
									"numinlets" : 2,
									"numoutlets" : 1,
									"outlettype" : [ "" ],
									"patching_rect" : [ 187.0, 221.25, 29.5, 22.0 ],
									"text" : "0"
								}

							}
, 							{
								"box" : 								{
									"id" : "obj-14",
									"maxclass" : "newobj",
									"numinlets" : 1,
									"numoutlets" : 1,
									"outlettype" : [ "signal" ],
									"patching_rect" : [ 242.0, 291.0, 31.0, 22.0 ],
									"text" : "sig~"
								}

							}
, 							{
								"box" : 								{
									"id" : "obj-13",
									"maxclass" : "newobj",
									"numinlets" : 6,
									"numoutlets" : 1,
									"outlettype" : [ "" ],
									"patching_rect" : [ 242.0, 255.0, 103.0, 22.0 ],
									"text" : "scale 0 100 0.5 2."
								}

							}
, 							{
								"box" : 								{
									"id" : "obj-12",
									"maxclass" : "newobj",
									"numinlets" : 2,
									"numoutlets" : 1,
									"outlettype" : [ "int" ],
									"patching_rect" : [ 242.0, 221.0, 73.0, 22.0 ],
									"text" : "random 100"
								}

							}
, 							{
								"box" : 								{
									"id" : "obj-11",
									"maxclass" : "newobj",
									"numinlets" : 1,
									"numoutlets" : 1,
									"outlettype" : [ "" ],
									"patching_rect" : [ 36.0, 251.0, 72.0, 22.0 ],
									"text" : "prepend set"
								}

							}
, 							{
								"box" : 								{
									"id" : "obj-9",
									"maxclass" : "newobj",
									"numinlets" : 1,
									"numoutlets" : 2,
									"outlettype" : [ "bang", "int" ],
									"patching_rect" : [ 36.0, 191.5, 29.5, 22.0 ],
									"text" : "t b i"
								}

							}
, 							{
								"box" : 								{
									"id" : "obj-7",
									"maxclass" : "newobj",
									"numinlets" : 2,
									"numoutlets" : 1,
									"outlettype" : [ "int" ],
									"patching_rect" : [ 36.0, 132.0, 49.0, 22.0 ],
									"text" : "urn-jb 7"
								}

							}
, 							{
								"box" : 								{
									"id" : "obj-6",
									"maxclass" : "newobj",
									"numinlets" : 3,
									"numoutlets" : 2,
									"outlettype" : [ "", "" ],
									"patching_rect" : [ 36.0, 221.25, 132.0, 22.0 ],
									"text" : "combine breaks . index"
								}

							}
, 							{
								"box" : 								{
									"id" : "obj-5",
									"maxclass" : "newobj",
									"numinlets" : 3,
									"numoutlets" : 2,
									"outlettype" : [ "signal", "signal" ],
									"patching_rect" : [ 36.0, 347.0, 92.0, 22.0 ],
									"text" : "groove~ breaks"
								}

							}
, 							{
								"box" : 								{
									"id" : "obj-4",
									"maxclass" : "newobj",
									"numinlets" : 1,
									"numoutlets" : 1,
									"outlettype" : [ "" ],
									"patching_rect" : [ 336.0, 95.666666666666671, 110.0, 22.0 ],
									"text" : "prepend readfolder"
								}

							}
, 							{
								"box" : 								{
									"id" : "obj-3",
									"maxclass" : "newobj",
									"numinlets" : 1,
									"numoutlets" : 1,
									"outlettype" : [ "" ],
									"patching_rect" : [ 336.0, 59.333333333333336, 119.0, 22.0 ],
									"text" : "mt.relativetoabsolute"
								}

							}
, 							{
								"box" : 								{
									"id" : "obj-2",
									"maxclass" : "newobj",
									"numinlets" : 1,
									"numoutlets" : 1,
									"outlettype" : [ "" ],
									"patching_rect" : [ 336.0, 23.0, 142.0, 22.0 ],
									"text" : "loadmess ../audio/breaks"
								}

							}
, 							{
								"box" : 								{
									"id" : "obj-1",
									"maxclass" : "newobj",
									"numinlets" : 1,
									"numoutlets" : 2,
									"outlettype" : [ "", "bang" ],
									"patching_rect" : [ 336.0, 132.0, 107.0, 22.0 ],
									"saved_object_attributes" : 									{
										"embed" : 0
									}
,
									"text" : "polybuffer~ breaks"
								}

							}
, 							{
								"box" : 								{
									"id" : "obj-8",
									"maxclass" : "button",
									"numinlets" : 1,
									"numoutlets" : 1,
									"outlettype" : [ "bang" ],
									"parameter_enable" : 0,
									"patching_rect" : [ 36.0, 23.0, 60.0, 60.0 ]
								}

							}
 ],
						"lines" : [ 							{
								"patchline" : 								{
									"destination" : [ "obj-5", 0 ],
									"source" : [ "obj-11", 0 ]
								}

							}
, 							{
								"patchline" : 								{
									"destination" : [ "obj-13", 0 ],
									"source" : [ "obj-12", 0 ]
								}

							}
, 							{
								"patchline" : 								{
									"destination" : [ "obj-14", 0 ],
									"source" : [ "obj-13", 0 ]
								}

							}
, 							{
								"patchline" : 								{
									"destination" : [ "obj-5", 0 ],
									"source" : [ "obj-14", 0 ]
								}

							}
, 							{
								"patchline" : 								{
									"destination" : [ "obj-5", 0 ],
									"source" : [ "obj-16", 0 ]
								}

							}
, 							{
								"patchline" : 								{
									"destination" : [ "obj-9", 0 ],
									"source" : [ "obj-18", 0 ]
								}

							}
, 							{
								"patchline" : 								{
									"destination" : [ "obj-3", 0 ],
									"source" : [ "obj-2", 0 ]
								}

							}
, 							{
								"patchline" : 								{
									"destination" : [ "obj-4", 0 ],
									"source" : [ "obj-3", 0 ]
								}

							}
, 							{
								"patchline" : 								{
									"destination" : [ "obj-1", 0 ],
									"source" : [ "obj-4", 0 ]
								}

							}
, 							{
								"patchline" : 								{
									"destination" : [ "obj-17", 0 ],
									"source" : [ "obj-5", 0 ]
								}

							}
, 							{
								"patchline" : 								{
									"destination" : [ "obj-11", 0 ],
									"source" : [ "obj-6", 0 ]
								}

							}
, 							{
								"patchline" : 								{
									"destination" : [ "obj-18", 0 ],
									"source" : [ "obj-7", 0 ]
								}

							}
, 							{
								"patchline" : 								{
									"destination" : [ "obj-12", 0 ],
									"order" : 0,
									"source" : [ "obj-8", 0 ]
								}

							}
, 							{
								"patchline" : 								{
									"destination" : [ "obj-16", 0 ],
									"order" : 1,
									"source" : [ "obj-8", 0 ]
								}

							}
, 							{
								"patchline" : 								{
									"destination" : [ "obj-7", 0 ],
									"order" : 2,
									"source" : [ "obj-8", 0 ]
								}

							}
, 							{
								"patchline" : 								{
									"destination" : [ "obj-6", 2 ],
									"source" : [ "obj-9", 1 ]
								}

							}
, 							{
								"patchline" : 								{
									"destination" : [ "obj-6", 0 ],
									"source" : [ "obj-9", 0 ]
								}

							}
 ]
					}
,
					"patching_rect" : [ 609.0, 116.0, 100.0, 22.0 ],
					"saved_object_attributes" : 					{
						"description" : "",
						"digest" : "",
						"globalpatchername" : "",
						"tags" : ""
					}
,
					"text" : "p randomSample"
				}

			}
, 			{
				"box" : 				{
					"id" : "obj-37",
					"lastchannelcount" : 0,
					"maxclass" : "live.gain~",
					"numinlets" : 2,
					"numoutlets" : 5,
					"outlettype" : [ "signal", "signal", "", "float", "list" ],
					"parameter_enable" : 1,
					"patching_rect" : [ 431.0, 152.0, 48.0, 136.0 ],
					"saved_attribute_attributes" : 					{
						"valueof" : 						{
							"parameter_longname" : "live.gain~[2]",
							"parameter_mmax" : 6.0,
							"parameter_mmin" : -70.0,
							"parameter_shortname" : "live.gain~",
							"parameter_type" : 0,
							"parameter_unitstyle" : 4
						}

					}
,
					"varname" : "live.gain~[2]"
				}

			}
, 			{
				"box" : 				{
					"id" : "obj-36",
					"lastchannelcount" : 0,
					"maxclass" : "live.gain~",
					"numinlets" : 2,
					"numoutlets" : 5,
					"outlettype" : [ "signal", "signal", "", "float", "list" ],
					"parameter_enable" : 1,
					"patching_rect" : [ 243.0, 148.0, 48.0, 136.0 ],
					"saved_attribute_attributes" : 					{
						"valueof" : 						{
							"parameter_longname" : "live.gain~[1]",
							"parameter_mmax" : 6.0,
							"parameter_mmin" : -70.0,
							"parameter_shortname" : "live.gain~",
							"parameter_type" : 0,
							"parameter_unitstyle" : 4
						}

					}
,
					"varname" : "live.gain~[1]"
				}

			}
, 			{
				"box" : 				{
					"id" : "obj-35",
					"maxclass" : "newobj",
					"numinlets" : 2,
					"numoutlets" : 1,
					"outlettype" : [ "signal" ],
					"patching_rect" : [ 44.0, 321.0, 29.5, 22.0 ],
					"text" : "+~"
				}

			}
, 			{
				"box" : 				{
					"id" : "obj-33",
					"maxclass" : "newobj",
					"numinlets" : 2,
					"numoutlets" : 0,
					"patching_rect" : [ 44.0, 378.0, 35.0, 22.0 ],
					"text" : "dac~"
				}

			}
, 			{
				"box" : 				{
					"id" : "obj-32",
					"lastchannelcount" : 0,
					"maxclass" : "live.gain~",
					"numinlets" : 2,
					"numoutlets" : 5,
					"outlettype" : [ "signal", "signal", "", "float", "list" ],
					"parameter_enable" : 1,
					"patching_rect" : [ 44.0, 148.0, 48.0, 136.0 ],
					"saved_attribute_attributes" : 					{
						"valueof" : 						{
							"parameter_longname" : "live.gain~",
							"parameter_mmax" : 6.0,
							"parameter_mmin" : -70.0,
							"parameter_shortname" : "live.gain~",
							"parameter_type" : 0,
							"parameter_unitstyle" : 4
						}

					}
,
					"varname" : "live.gain~"
				}

			}
, 			{
				"box" : 				{
					"id" : "obj-31",
					"maxclass" : "newobj",
					"numinlets" : 0,
					"numoutlets" : 1,
					"outlettype" : [ "signal" ],
					"patcher" : 					{
						"fileversion" : 1,
						"appversion" : 						{
							"major" : 8,
							"minor" : 5,
							"revision" : 4,
							"architecture" : "x64",
							"modernui" : 1
						}
,
						"classnamespace" : "box",
						"rect" : [ 630.0, 373.0, 376.0, 377.0 ],
						"bglocked" : 0,
						"openinpresentation" : 0,
						"default_fontsize" : 12.0,
						"default_fontface" : 0,
						"default_fontname" : "Arial",
						"gridonopen" : 1,
						"gridsize" : [ 15.0, 15.0 ],
						"gridsnaponopen" : 1,
						"objectsnaponopen" : 1,
						"statusbarvisible" : 2,
						"toolbarvisible" : 1,
						"lefttoolbarpinned" : 0,
						"toptoolbarpinned" : 0,
						"righttoolbarpinned" : 0,
						"bottomtoolbarpinned" : 0,
						"toolbars_unpinned_last_save" : 0,
						"tallnewobj" : 0,
						"boxanimatetime" : 200,
						"enablehscroll" : 1,
						"enablevscroll" : 1,
						"devicewidth" : 0.0,
						"description" : "",
						"digest" : "",
						"tags" : "",
						"style" : "",
						"subpatcher_template" : "",
						"assistshowspatchername" : 0,
						"boxes" : [ 							{
								"box" : 								{
									"comment" : "",
									"id" : "obj-11",
									"index" : 1,
									"maxclass" : "outlet",
									"numinlets" : 1,
									"numoutlets" : 0,
									"patching_rect" : [ 36.0, 299.0, 30.0, 30.0 ]
								}

							}
, 							{
								"box" : 								{
									"id" : "obj-6",
									"maxclass" : "newobj",
									"numinlets" : 2,
									"numoutlets" : 1,
									"outlettype" : [ "float" ],
									"patching_rect" : [ 215.25, 193.0, 39.0, 22.0 ],
									"text" : "f 220."
								}

							}
, 							{
								"box" : 								{
									"id" : "obj-9",
									"maxclass" : "newobj",
									"numinlets" : 2,
									"numoutlets" : 1,
									"outlettype" : [ "float" ],
									"patching_rect" : [ 155.5, 193.0, 34.0, 22.0 ],
									"text" : "f 110"
								}

							}
, 							{
								"box" : 								{
									"id" : "obj-4",
									"maxclass" : "newobj",
									"numinlets" : 2,
									"numoutlets" : 1,
									"outlettype" : [ "float" ],
									"patching_rect" : [ 96.0, 193.0, 39.0, 22.0 ],
									"text" : "f 330."
								}

							}
, 							{
								"box" : 								{
									"id" : "obj-3",
									"maxclass" : "newobj",
									"numinlets" : 2,
									"numoutlets" : 1,
									"outlettype" : [ "float" ],
									"patching_rect" : [ 36.0, 193.0, 39.0, 22.0 ],
									"text" : "f 440."
								}

							}
, 							{
								"box" : 								{
									"id" : "obj-2",
									"maxclass" : "newobj",
									"numinlets" : 2,
									"numoutlets" : 1,
									"outlettype" : [ "signal" ],
									"patching_rect" : [ 36.0, 248.0, 37.0, 22.0 ],
									"text" : "saw~"
								}

							}
, 							{
								"box" : 								{
									"id" : "obj-1",
									"maxclass" : "newobj",
									"numinlets" : 5,
									"numoutlets" : 5,
									"outlettype" : [ "bang", "bang", "bang", "bang", "" ],
									"patching_rect" : [ 36.0, 144.0, 258.0, 22.0 ],
									"text" : "sel 0 1 2 3"
								}

							}
, 							{
								"box" : 								{
									"id" : "obj-18",
									"maxclass" : "newobj",
									"numinlets" : 5,
									"numoutlets" : 4,
									"outlettype" : [ "int", "", "", "int" ],
									"patching_rect" : [ 36.0, 106.0, 61.0, 22.0 ],
									"text" : "counter 3"
								}

							}
, 							{
								"box" : 								{
									"id" : "obj-8",
									"maxclass" : "button",
									"numinlets" : 1,
									"numoutlets" : 1,
									"outlettype" : [ "bang" ],
									"parameter_enable" : 0,
									"patching_rect" : [ 36.0, 23.0, 60.0, 60.0 ]
								}

							}
 ],
						"lines" : [ 							{
								"patchline" : 								{
									"destination" : [ "obj-3", 0 ],
									"source" : [ "obj-1", 0 ]
								}

							}
, 							{
								"patchline" : 								{
									"destination" : [ "obj-4", 0 ],
									"source" : [ "obj-1", 1 ]
								}

							}
, 							{
								"patchline" : 								{
									"destination" : [ "obj-6", 0 ],
									"source" : [ "obj-1", 3 ]
								}

							}
, 							{
								"patchline" : 								{
									"destination" : [ "obj-9", 0 ],
									"source" : [ "obj-1", 2 ]
								}

							}
, 							{
								"patchline" : 								{
									"destination" : [ "obj-1", 0 ],
									"source" : [ "obj-18", 0 ]
								}

							}
, 							{
								"patchline" : 								{
									"destination" : [ "obj-11", 0 ],
									"source" : [ "obj-2", 0 ]
								}

							}
, 							{
								"patchline" : 								{
									"destination" : [ "obj-2", 0 ],
									"source" : [ "obj-3", 0 ]
								}

							}
, 							{
								"patchline" : 								{
									"destination" : [ "obj-2", 0 ],
									"source" : [ "obj-4", 0 ]
								}

							}
, 							{
								"patchline" : 								{
									"destination" : [ "obj-2", 0 ],
									"source" : [ "obj-6", 0 ]
								}

							}
, 							{
								"patchline" : 								{
									"destination" : [ "obj-18", 0 ],
									"source" : [ "obj-8", 0 ]
								}

							}
, 							{
								"patchline" : 								{
									"destination" : [ "obj-2", 0 ],
									"source" : [ "obj-9", 0 ]
								}

							}
 ]
					}
,
					"patching_rect" : [ 44.0, 116.0, 93.0, 22.0 ],
					"saved_object_attributes" : 					{
						"description" : "",
						"digest" : "",
						"globalpatchername" : "",
						"tags" : ""
					}
,
					"text" : "p scoreFollower"
				}

			}
, 			{
				"box" : 				{
					"id" : "obj-30",
					"maxclass" : "newobj",
					"numinlets" : 0,
					"numoutlets" : 1,
					"outlettype" : [ "signal" ],
					"patcher" : 					{
						"fileversion" : 1,
						"appversion" : 						{
							"major" : 8,
							"minor" : 5,
							"revision" : 4,
							"architecture" : "x64",
							"modernui" : 1
						}
,
						"classnamespace" : "box",
						"rect" : [ 721.0, 273.0, 395.0, 544.0 ],
						"bglocked" : 0,
						"openinpresentation" : 0,
						"default_fontsize" : 12.0,
						"default_fontface" : 0,
						"default_fontname" : "Arial",
						"gridonopen" : 1,
						"gridsize" : [ 15.0, 15.0 ],
						"gridsnaponopen" : 1,
						"objectsnaponopen" : 1,
						"statusbarvisible" : 2,
						"toolbarvisible" : 1,
						"lefttoolbarpinned" : 0,
						"toptoolbarpinned" : 0,
						"righttoolbarpinned" : 0,
						"bottomtoolbarpinned" : 0,
						"toolbars_unpinned_last_save" : 0,
						"tallnewobj" : 0,
						"boxanimatetime" : 200,
						"enablehscroll" : 1,
						"enablevscroll" : 1,
						"devicewidth" : 0.0,
						"description" : "",
						"digest" : "",
						"tags" : "",
						"style" : "",
						"subpatcher_template" : "",
						"assistshowspatchername" : 0,
						"boxes" : [ 							{
								"box" : 								{
									"id" : "obj-10",
									"maxclass" : "newobj",
									"numinlets" : 2,
									"numoutlets" : 2,
									"outlettype" : [ "signal", "bang" ],
									"patching_rect" : [ 127.0, 399.333333333333371, 48.0, 22.0 ],
									"text" : "line~ 0."
								}

							}
, 							{
								"box" : 								{
									"id" : "obj-9",
									"maxclass" : "message",
									"numinlets" : 2,
									"numoutlets" : 1,
									"outlettype" : [ "" ],
									"patching_rect" : [ 127.0, 362.666666666666686, 45.0, 22.0 ],
									"text" : "$1 250"
								}

							}
, 							{
								"box" : 								{
									"id" : "obj-6",
									"maxclass" : "newobj",
									"numinlets" : 6,
									"numoutlets" : 1,
									"outlettype" : [ "" ],
									"patching_rect" : [ 127.0, 326.0, 103.0, 22.0 ],
									"text" : "scale 0 100 0 440"
								}

							}
, 							{
								"box" : 								{
									"id" : "obj-4",
									"maxclass" : "newobj",
									"numinlets" : 2,
									"numoutlets" : 1,
									"outlettype" : [ "signal" ],
									"patching_rect" : [ 127.0, 436.000000000000057, 60.0, 22.0 ],
									"text" : "saw~ 100"
								}

							}
, 							{
								"box" : 								{
									"id" : "obj-3",
									"maxclass" : "newobj",
									"numinlets" : 3,
									"numoutlets" : 1,
									"outlettype" : [ "" ],
									"patching_rect" : [ 127.0, 289.333333333333314, 60.0, 22.0 ],
									"text" : "clip 0 100"
								}

							}
, 							{
								"box" : 								{
									"comment" : "",
									"id" : "obj-1",
									"index" : 1,
									"maxclass" : "outlet",
									"numinlets" : 1,
									"numoutlets" : 0,
									"patching_rect" : [ 127.0, 477.0, 30.0, 30.0 ]
								}

							}
, 							{
								"box" : 								{
									"id" : "obj-28",
									"maxclass" : "message",
									"numinlets" : 2,
									"numoutlets" : 1,
									"outlettype" : [ "" ],
									"patching_rect" : [ 49.0, 277.0, 35.0, 22.0 ],
									"text" : "set 0"
								}

							}
, 							{
								"box" : 								{
									"id" : "obj-26",
									"maxclass" : "newobj",
									"numinlets" : 2,
									"numoutlets" : 2,
									"outlettype" : [ "bang", "" ],
									"patching_rect" : [ 49.0, 247.0, 34.0, 22.0 ],
									"text" : "sel 1"
								}

							}
, 							{
								"box" : 								{
									"id" : "obj-25",
									"maxclass" : "newobj",
									"numinlets" : 2,
									"numoutlets" : 1,
									"outlettype" : [ "int" ],
									"patching_rect" : [ 49.0, 216.0, 29.5, 22.0 ],
									"text" : "< 0"
								}

							}
, 							{
								"box" : 								{
									"format" : 6,
									"id" : "obj-23",
									"maxclass" : "flonum",
									"numinlets" : 1,
									"numoutlets" : 2,
									"outlettype" : [ "", "bang" ],
									"parameter_enable" : 0,
									"patching_rect" : [ 127.0, 252.666666666666657, 50.0, 22.0 ]
								}

							}
, 							{
								"box" : 								{
									"id" : "obj-21",
									"maxclass" : "newobj",
									"numinlets" : 2,
									"numoutlets" : 1,
									"outlettype" : [ "float" ],
									"patching_rect" : [ 259.0, 176.0, 29.5, 22.0 ],
									"text" : "f -1."
								}

							}
, 							{
								"box" : 								{
									"id" : "obj-20",
									"maxclass" : "newobj",
									"numinlets" : 2,
									"numoutlets" : 1,
									"outlettype" : [ "float" ],
									"patching_rect" : [ 193.0, 176.0, 29.5, 22.0 ],
									"text" : "f 1."
								}

							}
, 							{
								"box" : 								{
									"id" : "obj-18",
									"maxclass" : "newobj",
									"numinlets" : 3,
									"numoutlets" : 1,
									"outlettype" : [ "float" ],
									"patching_rect" : [ 127.0, 216.0, 151.0, 22.0 ],
									"text" : "accum 0."
								}

							}
, 							{
								"box" : 								{
									"id" : "obj-8",
									"maxclass" : "button",
									"numinlets" : 1,
									"numoutlets" : 1,
									"outlettype" : [ "bang" ],
									"parameter_enable" : 0,
									"patching_rect" : [ 127.0, 47.0, 60.0, 60.0 ]
								}

							}
, 							{
								"box" : 								{
									"id" : "obj-5",
									"maxclass" : "newobj",
									"numinlets" : 1,
									"numoutlets" : 1,
									"outlettype" : [ "" ],
									"patching_rect" : [ 259.0, 47.0, 70.0, 22.0 ],
									"text" : "loadmess 1"
								}

							}
, 							{
								"box" : 								{
									"id" : "obj-2",
									"maxclass" : "newobj",
									"numinlets" : 2,
									"numoutlets" : 1,
									"outlettype" : [ "bang" ],
									"patching_rect" : [ 259.0, 83.0, 63.0, 22.0 ],
									"text" : "metro 250"
								}

							}
 ],
						"lines" : [ 							{
								"patchline" : 								{
									"destination" : [ "obj-4", 0 ],
									"source" : [ "obj-10", 0 ]
								}

							}
, 							{
								"patchline" : 								{
									"destination" : [ "obj-23", 0 ],
									"order" : 0,
									"source" : [ "obj-18", 0 ]
								}

							}
, 							{
								"patchline" : 								{
									"destination" : [ "obj-25", 0 ],
									"order" : 1,
									"source" : [ "obj-18", 0 ]
								}

							}
, 							{
								"patchline" : 								{
									"destination" : [ "obj-18", 0 ],
									"order" : 1,
									"source" : [ "obj-2", 0 ]
								}

							}
, 							{
								"patchline" : 								{
									"destination" : [ "obj-21", 0 ],
									"order" : 0,
									"source" : [ "obj-2", 0 ]
								}

							}
, 							{
								"patchline" : 								{
									"destination" : [ "obj-18", 1 ],
									"source" : [ "obj-20", 0 ]
								}

							}
, 							{
								"patchline" : 								{
									"destination" : [ "obj-18", 1 ],
									"source" : [ "obj-21", 0 ]
								}

							}
, 							{
								"patchline" : 								{
									"destination" : [ "obj-3", 0 ],
									"source" : [ "obj-23", 0 ]
								}

							}
, 							{
								"patchline" : 								{
									"destination" : [ "obj-26", 0 ],
									"source" : [ "obj-25", 0 ]
								}

							}
, 							{
								"patchline" : 								{
									"destination" : [ "obj-28", 0 ],
									"source" : [ "obj-26", 0 ]
								}

							}
, 							{
								"patchline" : 								{
									"destination" : [ "obj-18", 0 ],
									"source" : [ "obj-28", 0 ]
								}

							}
, 							{
								"patchline" : 								{
									"destination" : [ "obj-6", 0 ],
									"source" : [ "obj-3", 0 ]
								}

							}
, 							{
								"patchline" : 								{
									"destination" : [ "obj-1", 0 ],
									"source" : [ "obj-4", 0 ]
								}

							}
, 							{
								"patchline" : 								{
									"destination" : [ "obj-2", 0 ],
									"source" : [ "obj-5", 0 ]
								}

							}
, 							{
								"patchline" : 								{
									"destination" : [ "obj-9", 0 ],
									"source" : [ "obj-6", 0 ]
								}

							}
, 							{
								"patchline" : 								{
									"destination" : [ "obj-18", 0 ],
									"order" : 1,
									"source" : [ "obj-8", 0 ]
								}

							}
, 							{
								"patchline" : 								{
									"destination" : [ "obj-20", 0 ],
									"order" : 0,
									"source" : [ "obj-8", 0 ]
								}

							}
, 							{
								"patchline" : 								{
									"destination" : [ "obj-10", 0 ],
									"source" : [ "obj-9", 0 ]
								}

							}
 ]
					}
,
					"patching_rect" : [ 243.0, 116.0, 92.0, 22.0 ],
					"saved_object_attributes" : 					{
						"description" : "",
						"digest" : "",
						"globalpatchername" : "",
						"tags" : ""
					}
,
					"text" : "p buttonMasher"
				}

			}
, 			{
				"box" : 				{
					"id" : "obj-29",
					"maxclass" : "newobj",
					"numinlets" : 0,
					"numoutlets" : 1,
					"outlettype" : [ "signal" ],
					"patcher" : 					{
						"fileversion" : 1,
						"appversion" : 						{
							"major" : 8,
							"minor" : 5,
							"revision" : 4,
							"architecture" : "x64",
							"modernui" : 1
						}
,
						"classnamespace" : "box",
						"rect" : [ 812.0, 375.0, 327.0, 429.0 ],
						"bglocked" : 0,
						"openinpresentation" : 0,
						"default_fontsize" : 12.0,
						"default_fontface" : 0,
						"default_fontname" : "Arial",
						"gridonopen" : 1,
						"gridsize" : [ 15.0, 15.0 ],
						"gridsnaponopen" : 1,
						"objectsnaponopen" : 1,
						"statusbarvisible" : 2,
						"toolbarvisible" : 1,
						"lefttoolbarpinned" : 0,
						"toptoolbarpinned" : 0,
						"righttoolbarpinned" : 0,
						"bottomtoolbarpinned" : 0,
						"toolbars_unpinned_last_save" : 0,
						"tallnewobj" : 0,
						"boxanimatetime" : 200,
						"enablehscroll" : 1,
						"enablevscroll" : 1,
						"devicewidth" : 0.0,
						"description" : "",
						"digest" : "",
						"tags" : "",
						"style" : "",
						"subpatcher_template" : "",
						"assistshowspatchername" : 0,
						"boxes" : [ 							{
								"box" : 								{
									"comment" : "",
									"id" : "obj-12",
									"index" : 1,
									"maxclass" : "outlet",
									"numinlets" : 1,
									"numoutlets" : 0,
									"patching_rect" : [ 38.0, 321.0, 30.0, 30.0 ]
								}

							}
, 							{
								"box" : 								{
									"id" : "obj-11",
									"maxclass" : "newobj",
									"numinlets" : 2,
									"numoutlets" : 1,
									"outlettype" : [ "signal" ],
									"patching_rect" : [ 36.0, 277.0, 34.0, 22.0 ],
									"text" : "*~ 0."
								}

							}
, 							{
								"box" : 								{
									"id" : "obj-10",
									"maxclass" : "newobj",
									"numinlets" : 2,
									"numoutlets" : 1,
									"outlettype" : [ "signal" ],
									"patching_rect" : [ 36.0, 225.0, 60.0, 22.0 ],
									"text" : "saw~ 220"
								}

							}
, 							{
								"box" : 								{
									"id" : "obj-7",
									"maxclass" : "message",
									"numinlets" : 2,
									"numoutlets" : 1,
									"outlettype" : [ "" ],
									"patching_rect" : [ 111.0, 191.0, 89.0, 22.0 ],
									"text" : "0. 0 1. 10 0. 50"
								}

							}
, 							{
								"box" : 								{
									"id" : "obj-5",
									"maxclass" : "newobj",
									"numinlets" : 2,
									"numoutlets" : 2,
									"outlettype" : [ "signal", "bang" ],
									"patching_rect" : [ 111.0, 225.0, 48.0, 22.0 ],
									"text" : "line~ 0."
								}

							}
, 							{
								"box" : 								{
									"id" : "obj-4",
									"maxclass" : "number",
									"numinlets" : 1,
									"numoutlets" : 2,
									"outlettype" : [ "", "bang" ],
									"parameter_enable" : 0,
									"patching_rect" : [ 36.0, 154.0, 50.0, 22.0 ]
								}

							}
, 							{
								"box" : 								{
									"id" : "obj-2",
									"maxclass" : "button",
									"numinlets" : 1,
									"numoutlets" : 1,
									"outlettype" : [ "bang" ],
									"parameter_enable" : 0,
									"patching_rect" : [ 111.0, 154.0, 24.0, 24.0 ]
								}

							}
, 							{
								"box" : 								{
									"id" : "obj-18",
									"maxclass" : "newobj",
									"numinlets" : 5,
									"numoutlets" : 4,
									"outlettype" : [ "int", "", "", "int" ],
									"patching_rect" : [ 36.0, 113.0, 65.0, 22.0 ],
									"text" : "counter 50"
								}

							}
, 							{
								"box" : 								{
									"id" : "obj-8",
									"maxclass" : "button",
									"numinlets" : 1,
									"numoutlets" : 1,
									"outlettype" : [ "bang" ],
									"parameter_enable" : 0,
									"patching_rect" : [ 36.0, 23.0, 60.0, 60.0 ]
								}

							}
 ],
						"lines" : [ 							{
								"patchline" : 								{
									"destination" : [ "obj-11", 0 ],
									"source" : [ "obj-10", 0 ]
								}

							}
, 							{
								"patchline" : 								{
									"destination" : [ "obj-12", 0 ],
									"source" : [ "obj-11", 0 ]
								}

							}
, 							{
								"patchline" : 								{
									"destination" : [ "obj-2", 0 ],
									"source" : [ "obj-18", 3 ]
								}

							}
, 							{
								"patchline" : 								{
									"destination" : [ "obj-4", 0 ],
									"source" : [ "obj-18", 0 ]
								}

							}
, 							{
								"patchline" : 								{
									"destination" : [ "obj-7", 0 ],
									"source" : [ "obj-2", 0 ]
								}

							}
, 							{
								"patchline" : 								{
									"destination" : [ "obj-11", 1 ],
									"source" : [ "obj-5", 0 ]
								}

							}
, 							{
								"patchline" : 								{
									"destination" : [ "obj-5", 0 ],
									"source" : [ "obj-7", 0 ]
								}

							}
, 							{
								"patchline" : 								{
									"destination" : [ "obj-18", 0 ],
									"source" : [ "obj-8", 0 ]
								}

							}
 ]
					}
,
					"patching_rect" : [ 431.0, 116.0, 59.0, 22.0 ],
					"saved_object_attributes" : 					{
						"description" : "",
						"digest" : "",
						"globalpatchername" : "",
						"tags" : ""
					}
,
					"text" : "p 512rule"
				}

			}
, 			{
				"box" : 				{
					"fontname" : "Helvetica Neue Bold",
					"fontsize" : 24.0,
					"id" : "obj-34",
					"maxclass" : "comment",
					"numinlets" : 1,
					"numoutlets" : 0,
					"patching_rect" : [ 44.0, 23.0, 427.0, 35.0 ],
					"text" : "A Button is Never Just a Button"
				}

			}
 ],
		"lines" : [ 			{
				"patchline" : 				{
					"destination" : [ "obj-32", 0 ],
					"source" : [ "obj-1", 0 ]
				}

			}
, 			{
				"patchline" : 				{
					"destination" : [ "obj-36", 0 ],
					"source" : [ "obj-2", 0 ]
				}

			}
, 			{
				"patchline" : 				{
					"destination" : [ "obj-37", 0 ],
					"source" : [ "obj-29", 0 ]
				}

			}
, 			{
				"patchline" : 				{
					"destination" : [ "obj-37", 0 ],
					"source" : [ "obj-3", 0 ]
				}

			}
, 			{
				"patchline" : 				{
					"destination" : [ "obj-36", 0 ],
					"source" : [ "obj-30", 0 ]
				}

			}
, 			{
				"patchline" : 				{
					"destination" : [ "obj-32", 0 ],
					"source" : [ "obj-31", 0 ]
				}

			}
, 			{
				"patchline" : 				{
					"destination" : [ "obj-35", 0 ],
					"source" : [ "obj-32", 0 ]
				}

			}
, 			{
				"patchline" : 				{
					"destination" : [ "obj-33", 0 ],
					"source" : [ "obj-35", 0 ]
				}

			}
, 			{
				"patchline" : 				{
					"destination" : [ "obj-35", 0 ],
					"source" : [ "obj-36", 0 ]
				}

			}
, 			{
				"patchline" : 				{
					"destination" : [ "obj-35", 0 ],
					"source" : [ "obj-37", 0 ]
				}

			}
, 			{
				"patchline" : 				{
					"destination" : [ "obj-39", 0 ],
					"source" : [ "obj-38", 0 ]
				}

			}
, 			{
				"patchline" : 				{
					"destination" : [ "obj-35", 0 ],
					"source" : [ "obj-39", 0 ]
				}

			}
, 			{
				"patchline" : 				{
					"destination" : [ "obj-39", 0 ],
					"source" : [ "obj-4", 0 ]
				}

			}
, 			{
				"patchline" : 				{
					"destination" : [ "obj-35", 0 ],
					"source" : [ "obj-40", 0 ]
				}

			}
, 			{
				"patchline" : 				{
					"destination" : [ "obj-40", 0 ],
					"source" : [ "obj-41", 0 ]
				}

			}
, 			{
				"patchline" : 				{
					"destination" : [ "obj-40", 0 ],
					"source" : [ "obj-5", 0 ]
				}

			}
 ],
		"parameters" : 		{
			"obj-32" : [ "live.gain~", "live.gain~", 0 ],
			"obj-36" : [ "live.gain~[1]", "live.gain~", 0 ],
			"obj-37" : [ "live.gain~[2]", "live.gain~", 0 ],
			"obj-39" : [ "live.gain~[3]", "live.gain~", 0 ],
			"obj-40" : [ "live.gain~[4]", "live.gain~", 0 ],
			"parameterbanks" : 			{

			}
,
			"inherited_shortname" : 1
		}
,
		"dependency_cache" : [ 			{
				"name" : "mt.relativetoabsolute.maxpat",
				"bootpath" : "~/git/fundamentals-of-computer-music/class-04-buffers-and-samplers",
				"patcherrelativepath" : ".",
				"type" : "JSON",
				"implicit" : 1
			}
, 			{
				"name" : "urn-jb.maxpat",
				"bootpath" : "~/Library/Application Support/Cycling '74/Max 8/Examples/max-tricks/random_with_no_repeat",
				"patcherrelativepath" : "../../../Library/Application Support/Cycling '74/Max 8/Examples/max-tricks/random_with_no_repeat",
				"type" : "JSON",
				"implicit" : 1
			}
 ],
		"autosave" : 0
	}

}
